<svg width="698" height="976" viewBox="0 0 698 976" fill="none" xmlns="http://www.w3.org/2000/svg">
<g clip-path="url(#clip0_7_1071)">
<path d="M-36.1536 871.572L-15.6089 938.834L-5.72723 976.641L-0.0483389 1007.36L1.56676 1022.91L1.9662 1035.93" stroke="#32323F" stroke-opacity="0.56"/>
<path d="M-14.3237 875.897L-8.69693 901.322L0.385838 931.227L17.5267 980.427L37.7242 1034.05" stroke="#32323F" stroke-opacity="0.56"/>
<path d="M3.33816 -4.50647L2.33091 8.4838L3.28607 21.4567L5.61319 31.5988L15.1301 61.3653L16.7626 71.6464L17.0578 79.4614L15.9464 92.4169L13.3414 105.181L9.03443 120.204L-0.152527 147.348" stroke="#32323F" stroke-opacity="0.56"/>
<path d="M-4.40737 194.116L-4.47684 209.746L-2.4102 225.22L1.53204 240.346L12.4036 272.405L16.6237 287.445L19.8365 305.384L20.8785 320.98L19.906 341.785L16.2069 364.935L9.76382 390.168L0.142703 419.9" stroke="#32323F" stroke-opacity="0.56"/>
<path d="M-2.80963 437.527L-8.88796 457.464L-12.3439 472.695L-14.2195 488.203L-14.0632 503.833L-12.7434 514.166L-9.94733 526.879L1.98356 564.078L5.4048 576.634L7.57563 589.468L8.04454 599.871L7.21092 610.256L5.1964 620.485L-5.03258 652.752L-8.037 665.413L-9.18321 678.386L-8.85324 686.183L-7.79387 693.929" stroke="#32323F" stroke-opacity="0.56"/>
<path d="M0.681069 709.194L12.3167 743.754L16.6584 758.759L19.0897 771.558L19.906 784.548L19.1939 794.933L17.2836 805.162L14.4528 815.183L4.51911 844.828L2.12251 854.97L0.663712 865.268" stroke="#32323F" stroke-opacity="0.56"/>
<path d="M7.17621 881.819L7.57563 894.826" stroke="#32323F" stroke-opacity="0.56"/>
<path d="M14.696 910.456L17.4746 928.483" stroke="#32323F" stroke-opacity="0.56"/>
<path d="M25.7933 944.46L30.8817 967.35" stroke="#32323F" stroke-opacity="0.56"/>
<path d="M22.0421 -4.0202L25.2375 8.60536L33.9382 33.1445L36.248 43.304L37.0121 51.0842L36.9427 58.8992L36.1612 66.6621L34.2161 76.8911" stroke="#32323F" stroke-opacity="0.56"/>
<path d="M35.6402 95.925L28.2246 115.393" stroke="#32323F" stroke-opacity="0.56"/>
<path d="M24.9944 133.854L20.7048 148.893L18.0998 161.64L16.7452 174.596L16.7973 185.016L17.9262 195.366L20.7396 208.062L37.0121 254.795L40.225 267.421L42.3263 280.272L43.2815 298.472L42.4479 314.068L39.9644 332.129L36.1959 349.965" stroke="#32323F" stroke-opacity="0.56"/>
<path d="M35.4839 369.189L22.6846 406.111" stroke="#32323F" stroke-opacity="0.56"/>
<path d="M19.4718 423.738L14.2618 438.482" stroke="#32323F" stroke-opacity="0.56"/>
<path d="M11.8826 455.346L8.39186 470.576L6.63784 483.48L6.25577 496.487L7.38459 509.46L9.29493 519.706L12.7162 532.263L24.8381 566.666L28.624 579.118L31.2638 591.865L32.1842 604.855L31.4374 615.24L28.763 627.97L17.7178 659.977L14.366 672.568L12.8551 685.489L13.2198 695.891" stroke="#32323F" stroke-opacity="0.56"/>
<path d="M22.4068 712.772L27.7904 730.19L39.7561 761.885L44.6708 776.716L48.8215 794.447L50.2629 810.008L49.5161 822.998L46.998 835.762L43.0557 848.18L32.08 877.442L29.2145 887.463L27.2 897.674" stroke="#32323F" stroke-opacity="0.56"/>
<path d="M35.9875 912.54L34.5287 928.084" stroke="#32323F" stroke-opacity="0.56"/>
<path d="M46.4422 940.483L45.3655 953.456" stroke="#32323F" stroke-opacity="0.56"/>
<path d="M274.449 -5.21851L264.689 27.2051L253.453 59.1597L242.633 85.6786L232.144 106.64L224.034 119.995L213.544 134.913L172.767 185.676L152.744 212.994L131.886 246.025L111.949 282.617L88.1396 331.869L57.4874 400.918L44.3235 434.922L40.3813 447.339L37.1684 459.948L34.9108 472.782L33.9209 485.755L34.3898 498.762L36.3175 511.648L38.8009 521.756L42.8126 534.155L56.3586 568.003L61.586 582.73L64.7988 595.338L66.3271 608.276L65.7019 621.267L62.9927 633.996L58.7552 646.292L49.0299 670.466L45.3481 682.953L43.5246 695.839L43.5073 703.637L44.2367 711.417L46.8764 724.164L51.6522 739.047L74.7325 794.325L83.468 818.865L89.1295 841.598L90.6578 851.913L91.4045 862.299L90.7967 877.894L87.8791 893.246L82.9296 908.06L69.3489 939.077L63.9999 953.751L60.2661 968.93L58.0084 987.009" stroke="#32323F" stroke-opacity="0.56"/>
<path d="M106.722 886.855L107.556 899.845L107.417 910.265L106.045 923.204L103.926 933.415L100.921 943.384L97.1529 953.092L82.8254 983.778L78.9005 993.434L74.9236 1005.83L71.7455 1021.12" stroke="#32323F" stroke-opacity="0.56"/>
<path d="M41.7011 -5.21851L47.38 9.33476L49.7071 16.8024L51.6348 27.0314L52.0517 34.829" stroke="#32323F" stroke-opacity="0.56"/>
<path d="M58.1821 51.8484L53.9794 64.1787" stroke="#32323F" stroke-opacity="0.56"/>
<path d="M61.968 80.7986L54.6914 100.319L48.9257 120.343L46.4248 135.747L46.2686 151.359L47.7273 161.675L50.315 171.765L53.7883 181.577L64.6946 208.079L69.5052 222.945L72.7354 240.885L73.3258 259.085L71.7628 277.25L68.1332 297.76L61.7944 323.029L54.1009 347.915" stroke="#32323F" stroke-opacity="0.56"/>
<path d="M33.7819 181.873L39.2351 199.257L51.3917 230.864L56.2197 248.439" stroke="#32323F" stroke-opacity="0.56"/>
<path d="M67.3691 824.335L66.9175 839.948L64.2431 855.335L59.4673 870.218L47.8142 899.22" stroke="#32323F" stroke-opacity="0.56"/>
<path d="M55.8029 915.423L53.2326 922.804" stroke="#32323F" stroke-opacity="0.56"/>
<path d="M293.257 -0.147426L303.66 0.373574L316.65 -0.546859L324.292 -2.10986L331.499 -5.07956" stroke="#32323F" stroke-opacity="0.56"/>
<path d="M254.287 -5.40952L236.208 4.94102L223.825 14.458L218.337 20.0153L213.405 26.0763L204.948 39.2055L197.741 53.0814L187.981 74.3903L117.455 236.89" stroke="#32323F" stroke-opacity="0.56"/>
<path d="M287.266 20.4668L295.011 21.5435L302.809 21.8561L310.624 21.5783L318.37 20.5884L323.423 19.3553L328.251 17.3929L332.489 14.3885L334.225 12.4608" stroke="#32323F" stroke-opacity="0.56"/>
<path d="M247.548 22.2035L227.976 35.1069" stroke="#32323F" stroke-opacity="0.56"/>
<path d="M280.684 40.8205L288.308 42.5398L296.071 43.3908L311.683 43.2171L319.377 41.9494L324.326 40.2995L328.772 37.6251L330.648 35.8189" stroke="#32323F" stroke-opacity="0.56"/>
<path d="M273.581 60.9485L280.979 63.4146L288.655 64.8734L299.023 65.7938H306.838L314.618 64.9949L319.672 63.7793L324.378 61.5911L328.216 58.083" stroke="#32323F" stroke-opacity="0.56"/>
<path d="M236.364 53.1509L215.802 69.1282L204.253 79.635" stroke="#32323F" stroke-opacity="0.56"/>
<path d="M265.835 80.9896L272.869 84.3414L282.924 87.0506L293.24 88.5441L306.248 88.9609L314.01 88.11L318.995 86.6338L323.388 83.8899L326.514 79.7566" stroke="#32323F" stroke-opacity="0.56"/>
<path d="M254.981 99.3809L261.094 104.244L270.507 108.672L283.08 111.989L295.984 113.708L306.404 113.917L314.132 112.805L318.89 110.773L320.922 109.141L323.753 104.799" stroke="#32323F" stroke-opacity="0.56"/>
<path d="M220.057 91.6875L197.306 113.118L183.274 128.522" stroke="#32323F" stroke-opacity="0.56"/>
<path d="M244.995 118.71L247.826 123.086L251.282 126.977L255.346 130.224L259.826 132.881L266.964 136.025L274.414 138.421L289.715 141.565L302.687 142.607L307.88 142.381L313.003 141.426L317.623 139.081L319.394 137.188L320.697 134.93L322.208 129.964" stroke="#32323F" stroke-opacity="0.56"/>
<path d="M233.707 137.188L235.131 144.864L237.962 152.141L240.775 156.517L246.159 162.161L252.515 166.694L259.427 170.306L266.686 173.207L276.655 176.228L286.849 178.417L297.165 179.789L304.98 179.997L312.673 178.781L317.102 176.142L319.724 171.696L320.783 166.607L321.322 158.81" stroke="#32323F" stroke-opacity="0.56"/>
<path d="M219.831 156.865L213.631 184.825L211.773 197.711L210.731 210.701L210.679 223.709L211.495 234.094L213.214 244.375L215.976 254.413L218.789 261.707L223.6 270.946L229.626 279.439L234.888 285.204L240.706 290.414L249.215 296.423L258.385 301.355L268.041 305.263L280.58 308.771L293.448 310.751L306.456 311.133L316.824 310.125L326.914 307.573L334 304.325L340.182 299.584L344.645 293.21L346.347 288.296L347.059 283.138L346.955 277.945L345.705 270.234L342.804 260.231L333.548 235.883L328.598 221.052L325.472 208.409L323.041 192.987" stroke="#32323F" stroke-opacity="0.56"/>
<path d="M179.002 146.948L170.892 157.16" stroke="#32323F" stroke-opacity="0.56"/>
<path d="M195.535 187.308L181.59 209.312L142.775 267.959L127.77 292.377L116.1 312.696" stroke="#32323F" stroke-opacity="0.56"/>
<path d="M106.34 249.915L98.2991 271.936" stroke="#32323F" stroke-opacity="0.56"/>
<path d="M110.317 330.757L93.5754 363.163L77.9975 396.125" stroke="#32323F" stroke-opacity="0.56"/>
<path d="M73.4821 413.162L64.3299 437.527L58.0432 460.104L56.185 470.35L55.0735 480.718L54.8304 491.138L55.2645 498.936L57.6958 514.357L62.819 531.846L69.5746 548.778L83.3811 579.708L89.6505 596.814L92.707 609.475L93.9054 622.43L92.846 635.386L89.6158 647.994L84.8573 660.116L74.1421 683.856L70.634 693.668L68.6889 701.24L67.3343 711.556L67.4385 721.976L68.8973 732.274L71.4155 742.382" stroke="#32323F" stroke-opacity="0.56"/>
<path d="M80.4809 757.751L86.5245 772.166L95.4683 790.974L121.188 839.253L139.962 870.513L173.115 920.425L179.592 931.713L185.219 943.47L191.193 960.681L195.327 981.087L197.671 1007.03L198.522 1035.67" stroke="#32323F" stroke-opacity="0.56"/>
<path d="M108.163 853.963L114.415 871.086" stroke="#32323F" stroke-opacity="0.56"/>
<path d="M125.252 885.101L134.265 903.892L144.425 922.075L154.411 937.323L174.209 964.814" stroke="#32323F" stroke-opacity="0.56"/>
<path d="M123.724 923.794L133.692 966.933L141.438 991.802L146.492 1003.8L151.267 1013.06L158.145 1024.12L165.786 1034.66" stroke="#32323F" stroke-opacity="0.56"/>
<path d="M113.999 960.629L110.942 973.289L106.705 985.602L88.9037 1023.27" stroke="#32323F" stroke-opacity="0.56"/>
<path d="M62.6974 -5.18378L64.6251 2.38809L65.6671 10.1336" stroke="#32323F" stroke-opacity="0.56"/>
<path d="M73.0132 26.5625L69.8872 36.4962" stroke="#32323F" stroke-opacity="0.56"/>
<path d="M80.012 50.4938L72.5964 67.1484" stroke="#32323F" stroke-opacity="0.56"/>
<path d="M80.7761 83.0736L79.3173 93.3894L78.9353 103.792L79.5779 111.59L81.054 119.248L86.1598 134.01L100.383 164.732L103.648 174.631L105.35 182.255L106.6 192.588L106.791 200.403L106.236 210.805L104.534 223.709" stroke="#32323F" stroke-opacity="0.56"/>
<path d="M64.3646 129.877L66.3965 140.088L69.4183 150.057L83.8674 183.54L87.306 193.369L89.3032 200.924" stroke="#32323F" stroke-opacity="0.56"/>
<path d="M193.642 -5.13165L198.036 4.28108L200.12 14.4753" stroke="#32323F" stroke-opacity="0.56"/>
<path d="M162.973 -4.97537L181.433 20.2063L184.924 27.2051L187.338 34.6206" stroke="#32323F" stroke-opacity="0.56"/>
<path d="M175.112 47.0031L177.474 54.4534" stroke="#32323F" stroke-opacity="0.56"/>
<path d="M164.796 66.228L167.592 76.2485" stroke="#32323F" stroke-opacity="0.56"/>
<path d="M156.616 90.1419L158.04 97.8353" stroke="#32323F" stroke-opacity="0.56"/>
<path d="M147.603 111.555L148.68 121.923" stroke="#32323F" stroke-opacity="0.56"/>
<path d="M137.53 135.382L137.912 145.785" stroke="#32323F" stroke-opacity="0.56"/>
<path d="M127.423 159.261L127.18 169.681" stroke="#32323F" stroke-opacity="0.56"/>
<path d="M410.534 1033.81L447.057 979.888L462.669 955.853L478.699 929.021L492.349 903.84L504.853 878.05L515.811 851.583L523.122 829.319L528.263 806.447L530.034 790.922L530.156 775.309L528.454 759.783L524.946 744.553L520.847 732.188L514.839 717.773L485.333 659.716L478.768 645.545L472.846 631.079L467.775 616.3L463.728 601.208L460.898 585.839L459.474 570.278L459.491 557.253L460.359 546.868L462.53 534.034L465.865 521.443L470.241 509.182L475.468 497.251L497.455 455.849L504.992 439.247L508.239 429.348L509.924 421.724L510.966 411.373L510.775 403.558L509.802 395.813L507.44 385.67L504.106 375.789L500.042 366.202L489.327 345.362L461.853 298.056L449.505 275.114L436.376 246.754L427.258 222.354L420.624 199.882L415.484 177.01L411.038 148.702L404.821 91.7396L402.285 78.9577L399.038 69.0761L394.14 59.8891L391.014 55.7385L385.596 50.0943L375.297 42.1404L355.604 29.428L349.612 24.4264" stroke="#32323F" stroke-opacity="0.56"/>
<path d="M388.357 101.204L382.678 95.8381L376.478 91.0623L352.043 76.127L343.621 70.0139" stroke="#32323F" stroke-opacity="0.56"/>
<path d="M391.587 129.46L384.328 122.01L376.148 115.567L367.396 109.923L349.317 99.5372L340.738 93.6326" stroke="#32323F" stroke-opacity="0.56"/>
<path d="M394.088 156.291L386.933 148.72L376.808 140.54L338.932 117.633" stroke="#32323F" stroke-opacity="0.56"/>
<path d="M399.437 186.683L390.615 177.114L378.58 167.163L367.691 160.025L338.445 142.954" stroke="#32323F" stroke-opacity="0.56"/>
<path d="M233.308 175.204L239.872 183.262L245.812 188.35L252.411 192.536L261.824 196.982L274.154 201.15L286.832 204.067L297.165 205.439L307.567 205.491" stroke="#32323F" stroke-opacity="0.56"/>
<path d="M413.782 236.647L399.906 221.104L386.256 209.051L371.39 198.492L344.715 182.203L336.083 176.35" stroke="#32323F" stroke-opacity="0.56"/>
<path d="M229.365 200.142L235.756 208.357L241.522 213.636L250.136 219.454L261.876 225.081L274.223 229.232L289.489 232.549L302.444 233.677L312.795 232.687" stroke="#32323F" stroke-opacity="0.56"/>
<path d="M193.468 225.585L184.664 247.31L172.785 273.395L123.828 368.304L113.773 389.474L105.472 408.594L97.2745 430.563L92.1339 448.052L89.0079 463.352L87.4449 478.895V489.315L88.7474 502.27L91.4393 515.017L95.3641 527.417L104.742 548.9L127.058 590.128L135.082 606.505L141.421 623.594L143.244 631.183L144.338 638.928L144.547 646.726L143.817 654.506L142.133 662.13L139.614 669.529L134.092 681.321L117.507 710.827L111.724 725.328L109.917 732.934L108.858 743.285L109.066 751.1L110.508 761.416L112.974 771.54L116.204 781.439L126.416 805.388L138.329 828.555L168.964 883.052" stroke="#32323F" stroke-opacity="0.56"/>
<path d="M229.157 229.787L236.173 237.481L246.472 245.417L257.951 251.565L272.608 256.949L287.856 260.37L303.417 261.655L313.767 260.717L318.786 259.345L323.441 257.018" stroke="#32323F" stroke-opacity="0.56"/>
<path d="M200.05 261.395L198.036 303.022L195.222 396.768L195.084 422.818L195.969 441.018L198.192 459.114L201.509 474.379L205.469 486.797L212.936 503.416L218.216 512.395L224.19 520.922L236.243 534.59L250.118 546.399L256.579 550.793L265.644 555.933L275.161 560.153L282.577 562.602L290.183 564.391L297.929 565.381L305.744 565.52L313.507 564.703L318.595 563.609L326.011 561.126L337.473 554.978L349.56 545.096L361.89 531.689L394.314 490.912L431.288 447.131L442.35 432.63L449.366 421.672L454.107 412.38L457.685 402.603L459.769 392.409L460.238 384.611L459.752 376.813L458.414 369.12L455.497 359.134L451.554 349.478L446.883 340.17L434.466 320.302L418.575 299.671L401.07 280.394L382.175 262.454L352.408 237.151" stroke="#32323F" stroke-opacity="0.56"/>
<path d="M240.393 264.138L251.352 271.172L263.143 276.695L275.509 280.724L288.273 283.346L301.229 284.457L311.631 283.989L321.791 281.766L328.772 278.327" stroke="#32323F" stroke-opacity="0.56"/>
<path d="M215.733 289.581L222.419 303.682L229.504 314.606L238.066 324.401L248.017 332.789L259.149 339.545L271.15 344.581L283.723 347.881L299.249 349.617L314.844 349.009L330.162 345.953L342.283 341.229L348.987 337.235L353.085 334.022L356.732 330.305L359.806 326.103L362.168 321.466L363.731 316.499L364.478 311.358L364.53 306.148L362.88 295.867" stroke="#32323F" stroke-opacity="0.56"/>
<path d="M367.951 278.344L364.773 274.211" stroke="#32323F" stroke-opacity="0.56"/>
<path d="M350.046 219.419L345.896 216.293" stroke="#32323F" stroke-opacity="0.56"/>
<path d="M101.46 578.961L109.64 598.117L114.259 613.035L116.395 625.869L116.274 638.876L114.433 649.123L111.255 659.039L107.104 668.608L94.3569 694.259L89.6852 706.415L86.8718 719.11L86.4029 732.101" stroke="#32323F" stroke-opacity="0.56"/>
<path d="M181.485 896.216L184.768 906.097" stroke="#32323F" stroke-opacity="0.56"/>
<path d="M196.82 919.991V927.806" stroke="#32323F" stroke-opacity="0.56"/>
<path d="M160.038 335.151L141.212 378.099L132.425 399.824L124.679 421.949L119.834 439.524L116.499 457.447L115.266 473.025L116.187 491.208L119.139 506.56L123.029 518.977L128.013 531.012L135.134 544.923L143.192 558.312L160.975 583.998L198.661 633.892L219.848 663.572L237.997 692.157L250.518 714.995L257.291 729.096L263.404 743.458L268.84 758.116L273.494 773.034L276.776 785.642L280.389 803.512L283.775 831.959L284.539 850.177L284.296 868.412L283.393 876.157L281.465 880.985L278.305 885.101L272.33 890.12L238.674 909.953L230.147 915.944L224.207 920.998L218.824 926.677L214.187 932.964L210.384 939.771L206.476 949.427" stroke="#32323F" stroke-opacity="0.56"/>
<path d="M281.413 905.958L280.493 911.082L278.808 915.996L276.047 920.408L272.452 924.176L264.099 930.376L239.438 944.964L228.792 952.466L219.38 961.428L211.842 972.039" stroke="#32323F" stroke-opacity="0.56"/>
<path d="M150.972 965.352L156.825 973.984" stroke="#32323F" stroke-opacity="0.56"/>
<path d="M83.0338 -4.61066L81.9918 3.11751" stroke="#32323F" stroke-opacity="0.56"/>
<path d="M110.786 -5.21851L90.623 34.2038" stroke="#32323F" stroke-opacity="0.56"/>
<path d="M100.14 48.5487L96.684 63.7966L95.5031 74.1472" stroke="#32323F" stroke-opacity="0.56"/>
<path d="M97.9518 92.8163L103.301 107.491L115.249 130.624L120.303 142.624" stroke="#32323F" stroke-opacity="0.56"/>
<path d="M144.651 -5.63528L145.484 2.12761L147.29 9.73422L149.062 14.6316L153.925 23.8359L161.357 34.5164" stroke="#32323F" stroke-opacity="0.56"/>
<path d="M394.852 1026.03L391.952 1018.79L389.156 1014.38L385.752 1010.45L377.816 1003.72L358.573 990.326L353.016 984.855L349.334 978.013L348.396 972.907L348.449 967.697L349.595 959.969L351.974 949.827L373.491 874.698L383.338 836.891L391.205 801.272L396.641 770.498L400.983 736.911L403.57 705.755L404.942 677.135L406.575 617.255L407.929 593.845L410.604 570.556L414.633 550.115L420.624 530.161L429.829 508.609L442.576 485.911L464.006 453.244L473.402 437.614L480.036 423.478L482.537 416.062L484.291 408.455L485.228 400.71L485.263 392.895L484.447 385.132L482.172 374.973L478.803 365.108L474.635 355.557L464.666 337.27" stroke="#32323F" stroke-opacity="0.56"/>
<path d="M432.503 1035.67L440.318 1025.25L450.426 1010.07L469.911 976.207" stroke="#32323F" stroke-opacity="0.56"/>
<path d="M407.53 1005.87L406.766 998.106L405.533 993.035L403.588 988.224L399.402 981.625L392.265 974.053L374.099 959.257L368.49 953.804" stroke="#32323F" stroke-opacity="0.56"/>
<path d="M421.406 986.87L422.865 976.554L422.917 966.151L421.58 958.458L418.853 951.147L414.911 944.408L410.065 938.295L389.677 918.167L381.688 907.904" stroke="#32323F" stroke-opacity="0.56"/>
<path d="M439.328 959.066L443.149 943.922L444.729 931.001L444 918.028L441.326 907.973L438.13 900.853L434.101 894.166L427.832 885.831L407.877 861.795L402.372 852.938L399.159 845.835" stroke="#32323F" stroke-opacity="0.56"/>
<path d="M482.293 961.81L494.363 935.829" stroke="#32323F" stroke-opacity="0.56"/>
<path d="M462.061 922.405L466.82 904.812L469.077 889.356L469.303 881.541L468.782 873.761L466.108 861.031L462.391 851.288L456.226 839.826L433.806 807.837L425.643 794.517L419.114 780.328L415.154 767.928" stroke="#32323F" stroke-opacity="0.56"/>
<path d="M504.853 922.335L542.399 839.253L552.351 815.183L561.242 790.696L567.894 768.223L571.784 750.405L574.198 732.344L574.771 714.126L573.277 695.961L569.109 675.555L561.92 653.256L543.355 607.356L537.242 590.198L531.945 570.052L530.278 559.771L529.392 549.386L530.017 531.168L533.351 513.263L538.891 495.897L556.31 452.376L559.749 439.82L561.485 426.934L561.138 413.926L558.186 398.591L553.288 383.76L539.326 350.069L534.897 337.825L531.528 325.252L529.826 312.348L530.312 299.341L533.021 286.628L536.425 276.781L547.471 250.332L551.968 235.379L553.896 219.888L553.827 212.073L552.837 201.705L549.19 183.852L542.365 161.432L530.434 129.738L507.597 74.3382L498.219 50.0422L489.119 22.8808L481.633 -4.78433" stroke="#32323F" stroke-opacity="0.56"/>
<path d="M486.687 875.306L489.64 857.332L490.195 844.324L489.066 831.351L485.35 816.19L481.581 806.482L475.746 794.829L449.627 752.802L438.616 732.118L433.51 720.135L429.204 707.857L425.609 695.335L422.17 680.088" stroke="#32323F" stroke-opacity="0.56"/>
<path d="M506.294 824.7L506.051 811.675L504.488 798.754L502.126 788.612L497.976 776.282L493.842 766.712L487.938 755.094L465.691 716.818L455.827 698.462L447.178 679.497L439.224 657.459L433.823 637.331L429.638 614.268L427.675 593.532L427.641 572.709" stroke="#32323F" stroke-opacity="0.56"/>
<path d="M547.349 775.76L548.877 757.595L548.721 741.982L546.95 726.457L543.598 711.191L539.76 698.739L534.202 684.134L508.17 627.31L499.591 605.498L495.683 593.081L492.592 580.42L490.525 567.569L489.692 557.184V546.764L490.525 536.378L492.21 526.097L495.44 513.489L498.792 503.625L503.759 491.59L519.545 458.715L524.685 446.749L529.392 431.848L531.372 418.997L531.528 411.182L530.885 403.402L529.513 395.708L526.752 385.67L519.041 366.307L500.719 328.881L493.46 312.157L487.92 294.791L485.472 279.369L485.767 266.379L487.069 258.668L489.171 251.148L495.145 236.717L509.177 208.791L512.98 199.083L515.776 189.062L517.444 178.781L517.965 165.774L516.784 150.196L514.717 137.327" stroke="#32323F" stroke-opacity="0.56"/>
<path d="M511.556 762.215L506.902 750.04L499.191 733.525L474.166 687.833L463.694 666.854L456.556 650.078L449.766 630.384" stroke="#32323F" stroke-opacity="0.56"/>
<path d="M439.763 559.285L440.943 548.935L443.34 536.135L446.813 523.597L451.294 511.37" stroke="#32323F" stroke-opacity="0.56"/>
<path d="M441.378 296.736L421.857 272.318L405.932 255.125L388.566 239.391L367.743 223.744" stroke="#32323F" stroke-opacity="0.56"/>
<path d="M466.855 271.71L465.413 261.377L465.031 250.975L465.691 243.194L467.897 233.017L470.415 225.637L474.704 216.137L493.356 181.803L497.333 172.182L500.303 162.196" stroke="#32323F" stroke-opacity="0.56"/>
<path d="M448.515 230.551L450.53 215.078L454.472 202.678L461.401 188.68L480.018 157.333L484.395 147.886L487.851 138.056L490.699 125.344L492.036 112.406L492.175 99.3809L490.699 78.593" stroke="#32323F" stroke-opacity="0.56"/>
<path d="M436.984 195.141L440.544 182.619L445.841 170.723L451.033 161.693L466.611 137.657L472.933 126.265" stroke="#32323F" stroke-opacity="0.56"/>
<path d="M430.367 156.014L434.535 146.479L439.589 137.362L458.536 109.297L463.92 100.388L469.633 88.6831L473.871 76.3701" stroke="#32323F" stroke-opacity="0.56"/>
<path d="M426.216 120.672L435.178 104.799L456.035 74.894" stroke="#32323F" stroke-opacity="0.56"/>
<path d="M422.465 88.5268L431.583 72.7578L448.411 49.556L456.782 36.3573L462.357 24.6001L466.924 9.66473" stroke="#32323F" stroke-opacity="0.56"/>
<path d="M415.102 61.6258L419.721 49.4518L424.532 40.2127L431.704 29.3412L448.689 6.26086L455.288 -4.94064" stroke="#32323F" stroke-opacity="0.56"/>
<path d="M380.681 70.8301L370.018 63.3798L352.269 52.4388L345.982 47.8019" stroke="#32323F" stroke-opacity="0.56"/>
<path d="M403.049 43.7555L398.638 28.7681L395.182 21.7693L390.736 15.361L381.428 6.27824L364.304 -5.58319" stroke="#32323F" stroke-opacity="0.56"/>
<path d="M180.86 298.195L172.437 322.855" stroke="#32323F" stroke-opacity="0.56"/>
<path d="M151.702 601.59L162.782 622.257L169.589 639.154L171.621 646.691L172.872 654.402L173.202 662.2L172.819 667.393L170.666 677.587L165.699 689.605L159.117 700.841L143.244 724.685L136.054 738.544L133.432 745.907L131.643 753.514L130.757 761.277L130.896 771.679" stroke="#32323F" stroke-opacity="0.56"/>
<path d="M140.396 787.726L143.105 800.473" stroke="#32323F" stroke-opacity="0.56"/>
<path d="M153.542 814.506L157.207 827.01" stroke="#32323F" stroke-opacity="0.56"/>
<path d="M168.617 841.302L171.326 851.375" stroke="#32323F" stroke-opacity="0.56"/>
<path d="M182.927 863.948L184.316 874.282" stroke="#32323F" stroke-opacity="0.56"/>
<path d="M214.986 327.284L222.679 346.648L231.467 362.608L237.51 371.1L242.547 377.074L249.98 384.368L256.093 389.231L262.623 393.503L269.569 397.098L276.828 399.963L284.348 402.065L292.042 403.419L299.839 404.044L307.654 403.992L318.005 402.933L328.216 400.901L340.686 397.115L350.324 393.173L359.598 388.414L368.368 382.822L374.533 377.994L381.897 370.648L386.568 364.396L390.215 357.484L392.629 350.069L393.689 342.341L393.446 334.526L392.091 326.832L389.885 319.347L385.891 309.726L381.081 300.487" stroke="#32323F" stroke-opacity="0.56"/>
<path d="M178.794 339.093L159.603 406.754L155.383 424.502L152.553 439.872L150.99 452.793L150.364 468.405L151.389 484L153.647 496.817L158.075 511.805L165.404 528.477L174.66 544.193L185.428 558.886L199.217 574.516L214.361 588.826L228.671 600.097L244.005 609.961L257.968 616.977L272.643 622.361L285.303 625.365L298.224 626.859L311.249 626.598L324.048 624.341L336.24 619.825L345.201 614.511L351.279 609.614L356.75 604.039L361.647 597.943L367.343 589.243L374.638 575.419L391.709 537.386L399.854 521.078L411.646 500.829L426.355 479.329" stroke="#32323F" stroke-opacity="0.56"/>
<path d="M213.527 366.428L218.181 384.055L222.089 396.473L230.755 418.25L236.677 429.851L242.112 438.743L246.645 445.099L253.349 453.07L260.851 460.295L267.034 465.071L275.977 470.402L283.185 473.442L290.704 475.543L298.433 476.637L306.248 476.724L316.563 475.387L329.067 471.809L341.05 466.686L356.993 457.846L372.171 447.756L386.69 436.728L400.427 424.745L411.264 413.492L419.218 403.193L424.48 394.197L428.37 384.542L430.141 376.935L430.836 366.567L430.141 358.787L427.814 348.627L424.254 338.85L418.54 327.145" stroke="#32323F" stroke-opacity="0.56"/>
<path d="M177.908 407.848L174.938 433.741L174.244 457.152L174.851 467.554L176.171 477.887L180.305 495.636L183.743 505.466L187.963 515L192.878 524.17L198.47 532.974L211.373 549.317L226.257 563.887L236.451 571.98L245.082 577.833L254.078 583.06L265.87 588.583L275.682 592.091L285.772 594.661L296.088 596.12L303.886 596.415L311.683 595.929L321.912 593.932L329.276 591.361L336.275 587.871L342.77 583.546L348.726 578.493L354.145 572.866L360.657 564.738" stroke="#32323F" stroke-opacity="0.56"/>
<path d="M212.138 419.501L217.487 442.321L222.297 457.186L229.591 473.893L237.545 487.335L247.131 499.648L258.42 510.45L264.689 515.122L271.341 519.203L283.237 524.482L293.327 527.052L301.09 527.834L306.3 527.765L311.475 527.226L319.099 525.542L328.842 521.842L340.147 515.417L350.637 507.689L364.408 495.74L381.393 479.589" stroke="#32323F" stroke-opacity="0.56"/>
<path d="M390.997 464.081L414.963 440.184" stroke="#32323F" stroke-opacity="0.56"/>
<path d="M246.767 353.837L255.346 359.742L264.481 364.744L274.171 368.564L281.691 370.648L291.972 372.385L299.752 372.941L310.172 372.75L320.523 371.517L330.682 369.294L340.581 366.063L350.064 361.722L356.75 357.693L362.898 352.865L368.264 347.203L372.519 340.656L375.35 333.397" stroke="#32323F" stroke-opacity="0.56"/>
<path d="M265.123 823.189L232.248 844.307L223.964 850.611L216.375 857.731L209.845 865.841L205.868 872.562L201.891 882.183L199.252 892.273" stroke="#32323F" stroke-opacity="0.56"/>
<path d="M182.423 584.171L194.788 597.579L211.582 613.921L225.527 625.678L238.222 634.778L251.734 642.628L263.612 647.942L278.53 652.561L291.364 654.784L306.977 655.357L319.915 653.951L332.489 650.668L344.333 645.267L352.912 639.363L362.151 630.228L369.636 619.582L375.627 608.033" stroke="#32323F" stroke-opacity="0.56"/>
<path d="M192.235 654.975L194.788 665.083L195.935 675.433L195.084 685.801L192.149 695.77L188.832 702.838L183.361 711.712L164.431 736.581L157.189 747.401L151.424 759.071L148.385 769.022" stroke="#32323F" stroke-opacity="0.56"/>
<path d="M234.211 654.524L244.631 662.339L253.418 667.931L262.692 672.655L269.951 675.572L279.937 678.49L290.183 680.331L300.586 681.112L310.989 680.834L321.322 679.497L331.447 677.066L341.207 673.436L350.394 668.539L358.747 662.321L364.304 656.834L369.219 650.773L374.759 641.95" stroke="#32323F" stroke-opacity="0.56"/>
<path d="M214.795 688.84L214.569 696.655L213.77 701.796L212.398 706.815L209.342 714.005L205.382 720.726L200.78 727.064L178.689 752.715L169.572 765.393L165.838 772.252L162.886 779.477L160.819 787.014L159.69 794.742" stroke="#32323F" stroke-opacity="0.56"/>
<path d="M259.201 692.713L266.026 696.499L273.181 699.642L285.703 703.151L301.246 704.731L309.044 704.575L319.412 703.446L329.606 701.327L337.073 699.035L344.315 696.117L351.245 692.522L357.774 688.215L363.766 683.214L372.38 673.471" stroke="#32323F" stroke-opacity="0.56"/>
<path d="M230.407 714.804L227.351 724.755L223.704 731.649L220.751 735.939L212.311 745.855L190.481 768.223L180.808 780.484" stroke="#32323F" stroke-opacity="0.56"/>
<path d="M272.574 719.909L284.817 724.268L295.098 725.936L308.106 726.161L323.597 724.216L338.671 720.1L350.585 714.873L361.526 707.822L369.236 700.841" stroke="#32323F" stroke-opacity="0.56"/>
<path d="M242.772 739.43L237.649 748.495L230.998 756.518L202.325 783.02L191.888 794.655L186.14 803.339L182.753 810.372L180.287 817.771L178.724 825.429" stroke="#32323F" stroke-opacity="0.56"/>
<path d="M282.872 745.768L293.014 748.113L306.004 748.738L318.96 747.453L331.69 744.709L344.003 740.506L353.415 736.026L364.235 728.818L371.876 721.733" stroke="#32323F" stroke-opacity="0.56"/>
<path d="M252.029 762.492L247.184 768.623L241.713 774.198L215.507 795.628L205.868 804.398" stroke="#32323F" stroke-opacity="0.56"/>
<path d="M290.374 769.856L300.725 771.037L311.128 770.672L323.996 768.71L336.587 765.375L346.33 761.728L357.896 755.754L366.371 749.711L372.119 744.414" stroke="#32323F" stroke-opacity="0.56"/>
<path d="M259.132 786.076L249.476 794.794L224.173 813.168L212.207 823.206L206.789 828.833L201.978 834.981L197.932 841.667L194.806 848.822" stroke="#32323F" stroke-opacity="0.56"/>
<path d="M295.463 791.738L303.261 792.12L313.646 791.391L323.927 789.654L334.017 787.066L343.864 783.662L351.002 780.502L360.067 775.378L366.406 770.794" stroke="#32323F" stroke-opacity="0.56"/>
<path d="M301.576 813.88L309.391 813.602L319.707 812.178L329.884 809.903L339.835 806.847L349.473 802.922L356.403 799.31L362.967 795.072L369.045 790.157" stroke="#32323F" stroke-opacity="0.56"/>
<path d="M303.538 835.971L311.336 835.484L321.634 833.869L331.759 831.455L341.676 828.243L355.812 821.626L362.359 817.354L368.368 812.387" stroke="#32323F" stroke-opacity="0.56"/>
<path d="M267.207 846.721L238.135 864.087L227.386 871.433" stroke="#32323F" stroke-opacity="0.56"/>
<path d="M304.042 858.026L311.84 857.488L322.138 855.873L339.713 851.08L353.936 844.654L364.547 837.134" stroke="#32323F" stroke-opacity="0.56"/>
<path d="M302.653 879.162L318.196 877.79L333.444 874.368L348.032 868.794L359.077 861.951" stroke="#32323F" stroke-opacity="0.56"/>
<path d="M267.068 870.843L233.36 890.572L225.024 896.806L217.521 904.031" stroke="#32323F" stroke-opacity="0.56"/>
<path d="M300.76 908.355L313.75 907.73L326.601 905.559L339.071 901.843L348.466 897.362" stroke="#32323F" stroke-opacity="0.56"/>
<path d="M289.853 930.55L302.774 931.887L315.764 931.053L328.564 928.674L340.825 924.315" stroke="#32323F" stroke-opacity="0.56"/>
<path d="M275.856 944.009L272.139 953.734L269.361 958.128L265.922 962.035L255.711 970.094L237.997 981.052" stroke="#32323F" stroke-opacity="0.56"/>
<path d="M127.927 1.1377L123.324 16.0557L121.032 26.2325L119.799 36.5657L120.007 46.9683L121.362 54.6618L124.714 64.5087L129.438 73.7998L138.833 89.4298" stroke="#32323F" stroke-opacity="0.56"/>
<path d="M111.758 79.6177L116.152 89.0651L131.035 116.539" stroke="#32323F" stroke-opacity="0.56"/>
<path d="M137.444 32.224L143.279 43.8597L150.364 54.7833" stroke="#32323F" stroke-opacity="0.56"/>
<path d="M288.811 963.112L299.179 963.98L312.187 963.321L322.451 961.549L332.367 958.388" stroke="#32323F" stroke-opacity="0.56"/>
<path d="M404.543 962.14L397.093 954.863L383.356 942.88L374.69 933.172" stroke="#32323F" stroke-opacity="0.56"/>
<path d="M390.702 892.308L388.149 887.758" stroke="#32323F" stroke-opacity="0.56"/>
<path d="M407.756 830.795L405.012 823.484" stroke="#32323F" stroke-opacity="0.56"/>
<path d="M420.138 749.45L418.193 741.878" stroke="#32323F" stroke-opacity="0.56"/>
<path d="M383.929 691.654L386.95 684.447" stroke="#32323F" stroke-opacity="0.56"/>
<path d="M387.836 594.782L391.865 579.691" stroke="#32323F" stroke-opacity="0.56"/>
<path d="M427.397 929.786L418.488 916.969L406.036 903.649" stroke="#32323F" stroke-opacity="0.56"/>
<path d="M451.711 887.758L447.265 878.345L441.829 869.454L421.111 842.674" stroke="#32323F" stroke-opacity="0.56"/>
<path d="M520.847 1033.62L517.027 1021.19L506.937 1000.03L503.133 990.326L500.442 977.613L500.077 964.606" stroke="#32323F" stroke-opacity="0.56"/>
<path d="M510.636 949.115L511.713 938.747" stroke="#32323F" stroke-opacity="0.56"/>
<path d="M471.196 829.094L463.52 815.478L441.829 782.985L432.712 767.199" stroke="#32323F" stroke-opacity="0.56"/>
<path d="M525.345 928.292L526.822 915.354" stroke="#32323F" stroke-opacity="0.56"/>
<path d="M537.051 899.811L539.933 887.098" stroke="#32323F" stroke-opacity="0.56"/>
<path d="M549.919 871.225L558.846 843.994" stroke="#32323F" stroke-opacity="0.56"/>
<path d="M568.606 827.218L587.692 775.952L597.365 746.237L601.342 731.128L604.034 718.381L605.962 705.512L607.021 692.522L606.552 671.699L603.339 651.12L597.869 631.027L584.08 591.691L579.425 576.773L575.431 558.99L573.816 543.464L574.285 527.851L576.803 512.43L580.971 497.373L594.517 457.968L596.896 447.826L598.216 437.493L598.112 424.485L596.115 411.616L591.877 396.577L579.147 359.655L576.282 346.943L575.223 336.592L575.552 326.19L577.88 313.39L588.786 281.332L592.12 268.758L593.701 255.837L593.51 245.417L591.756 232.531L588.734 219.854L583.229 202.469L575.136 180.466L532.657 71.2122L519.979 42.644L502.612 7.65021" stroke="#32323F" stroke-opacity="0.56"/>
<path d="M589.915 685.35L586.823 667.392L582.1 649.783L577.098 634.969L563.205 598.447L557.508 581.132L553.323 563.383L551.5 547.875L551.326 540.06L551.916 529.657L555.095 511.718L560.443 494.299L573.364 460.208L578.088 442.598L579.165 434.87L579.512 427.055L579.13 419.258L578.053 411.512" stroke="#32323F" stroke-opacity="0.56"/>
<path d="M553.74 684.759L545.508 662.825L526.735 619.86L520.952 605.341L515.238 588.027L511.591 572.831L509.333 554.752L509.438 539.122L512.043 521.096L517.062 503.573" stroke="#32323F" stroke-opacity="0.56"/>
<path d="M559.367 353.612L556.71 343.539L554.608 330.705L554.209 322.89L554.956 312.505L558.55 297.326L568.675 270.512L571.853 260.596L574.441 247.849L575.118 237.446" stroke="#32323F" stroke-opacity="0.56"/>
<path d="M511.66 310.542L510.74 302.779L510.514 292.359L511.244 284.579L512.807 276.938L516.905 264.573L531.65 231.229L534.845 221.312L536.53 213.688" stroke="#32323F" stroke-opacity="0.56"/>
<path d="M479.81 59.3334L480.088 51.5184" stroke="#32323F" stroke-opacity="0.56"/>
<path d="M414.98 20.3973L419.982 8.37959L428.075 -4.97537" stroke="#32323F" stroke-opacity="0.56"/>
<path d="M402.598 2.78752L400.305 -4.68015" stroke="#32323F" stroke-opacity="0.56"/>
<path d="M242.13 401.023L250.917 410.626L260.834 419.049L271.983 425.753L281.656 429.591L291.798 431.918L304.789 432.717L315.174 431.848L327.921 429.209L342.718 424.224L359.216 416.479L374.724 406.91L386.933 397.167L395.946 387.772L403.24 377.004L405.481 372.315L407.929 364.9L409.319 354.584" stroke="#32323F" stroke-opacity="0.56"/>
<path d="M271.028 445.968L280.597 450.049L290.635 452.827L300.985 453.939L311.388 453.487L321.634 451.681L334.104 447.913L346.121 442.911L357.705 436.972" stroke="#32323F" stroke-opacity="0.56"/>
<path d="M249.389 473.737L254.773 479.381L262.57 486.293L273.338 493.604L280.354 497.026L287.735 499.578L292.823 500.742L300.569 501.61L313.542 500.707L326.063 497.164L340.165 490.461L355.499 480.614" stroke="#32323F" stroke-opacity="0.56"/>
<path d="M539.03 1035.74L541.062 1025.53L542.191 1015.18L542.156 1007.36L541.236 999.617L537.763 987.078L525.727 958.232" stroke="#32323F" stroke-opacity="0.56"/>
<path d="M559.523 1006.7L561.277 996.421L561.798 988.641L561.503 980.826L560.305 973.115L556.553 960.646L547.002 936.42L543.129 921.293" stroke="#32323F" stroke-opacity="0.56"/>
<path d="M557.474 910.925L555.459 895.434" stroke="#32323F" stroke-opacity="0.56"/>
<path d="M568.936 884.215L568.884 868.603" stroke="#32323F" stroke-opacity="0.56"/>
<path d="M576.768 853.233L578.453 842.935" stroke="#32323F" stroke-opacity="0.56"/>
<path d="M589.012 829.267L595.472 804.033" stroke="#32323F" stroke-opacity="0.56"/>
<path d="M604.364 787.466L620.654 737.988L627.791 712.928L630.64 700.233L632.776 687.382L634.321 666.611L633.383 648.411L630.865 632.989L626.333 615.327L616.052 583.06L611.849 568.02L608.844 552.686L607.646 537.108L608.289 524.1L610.355 511.249L613.568 498.641L624.422 463.82L626.663 453.644L627.896 443.31L627.93 432.89L626.281 419.987L622.442 404.843L612.387 372.506L609.869 359.742L609.122 349.357L609.73 338.954L611.64 328.708L620.81 298.837L623.224 288.712L624.544 278.379L624.388 265.372L622.46 252.485L619.334 239.86L605.666 197.728L599.987 177.687L596.427 159.8L594.916 144.256L595.281 128.644L597.643 113.205L601.724 98.1132L612.214 65.9154L614.645 55.7906L616.329 45.5095L617.215 35.1416L617.267 22.1166L616.329 9.12637L614.627 -3.79443" stroke="#32323F" stroke-opacity="0.56"/>
<path d="M577.775 140.158L574.736 122.183L573.468 109.21L573.33 93.5978L574.545 80.6249L576.438 70.396L579.078 60.3059L593.371 18.4002L595.854 8.29275L597.556 -1.98831" stroke="#32323F" stroke-opacity="0.56"/>
<path d="M555.685 81.3022L553.097 55.3912L553.323 34.5685L554.487 24.218L556.449 13.989L562.58 -5.91318" stroke="#32323F" stroke-opacity="0.56"/>
<path d="M536.009 34.6901L525.901 -5.7395" stroke="#32323F" stroke-opacity="0.56"/>
<path d="M577.567 1013.65L586.563 989.214L591.304 974.314L594.829 959.1L596.236 946.162L595.958 935.76L594.291 925.479L591.495 915.441L583.732 893.316" stroke="#32323F" stroke-opacity="0.56"/>
<path d="M576.16 961.966L573.243 946.614L566.244 927.007" stroke="#32323F" stroke-opacity="0.56"/>
<path d="M588.682 876.574L587.223 868.898" stroke="#32323F" stroke-opacity="0.56"/>
<path d="M596.983 853.719L596.479 845.922" stroke="#32323F" stroke-opacity="0.56"/>
<path d="M609.122 833.626L609.904 815.426" stroke="#32323F" stroke-opacity="0.56"/>
<path d="M621.696 801.064L624.926 783.124L628.695 767.963" stroke="#32323F" stroke-opacity="0.56"/>
<path d="M636.874 751.412L648.18 714.005L654.119 691.324L657.818 670.831L658.843 660.463L659.173 650.043L658.548 637.036L656.29 621.579L652.713 606.366L640.643 563.766L638.229 550.966L637.048 538.011L637.36 524.986L639.132 512.1L642.084 499.405L651.983 464.324L653.772 454.06L654.501 443.658L653.998 433.255L652.383 422.974L641.32 382.805L639.305 372.576L638.472 364.813L638.368 356.998L639.41 346.63L641.581 336.453L649.969 306.34L651.549 296.058L651.862 285.638L650.941 275.271L649.031 265.024L634.894 214.887L632.359 202.122L631.178 191.772L631.022 178.764L632.48 165.826L635.329 153.113L643.473 125.639L645.922 115.515L647.919 102.646L648.614 89.6556L647.833 74.043L644.793 53.4461L640.938 35.6105L633.557 7.92807" stroke="#32323F" stroke-opacity="0.56"/>
<path d="M614.107 162.787L615.444 149.831L617.371 139.602L628.573 102.177L631.629 89.5167" stroke="#32323F" stroke-opacity="0.56"/>
<path d="M607.663 987.547L622.581 940.362L625.395 927.649L626.906 914.729L626.61 901.721L624.978 891.423L622.356 881.35L614.558 856.498" stroke="#32323F" stroke-opacity="0.56"/>
<path d="M609.817 911.464L607.142 901.391L603.044 889.026" stroke="#32323F" stroke-opacity="0.56"/>
<path d="M642.831 893.472L640.851 877.981L630.205 840.399L627.67 827.617L626.749 819.872" stroke="#32323F" stroke-opacity="0.56"/>
<path d="M641.581 811.206L640.903 800.803L640.99 790.383" stroke="#32323F" stroke-opacity="0.56"/>
<path d="M652.608 777.515L654.623 762.023L658.287 744.171L672.059 693.911L676.852 673.645L679.336 658.206L680.43 642.628L680.048 629.62L678.033 614.112L674.664 598.864L664.036 558.573L661.969 545.704L661.24 535.319L661.708 522.311L663.133 511.996L665.321 501.801L674.594 466.547L676.21 456.249L676.748 445.846L676.366 438.048L674.872 427.733L664.574 387.355L662.924 377.074L662.438 369.276L662.681 361.479L663.636 353.716L665.824 343.539L672.528 318.357L674.178 308.076L674.612 300.279L674.091 289.876L672.476 279.595L660.649 234.233L658.756 223.987L657.714 213.619V203.199L659.225 190.278L662.108 177.583L669.576 149.918L671.416 139.654L672.372 129.286L672.285 116.261L671.017 103.306L668.846 90.4718L664.834 72.6884" stroke="#32323F" stroke-opacity="0.56"/>
<path d="M665.165 55.0438L648.267 -5.14902" stroke="#32323F" stroke-opacity="0.56"/>
<path d="M635.311 966.394L638.385 953.751L647.989 921.276L651.184 908.65" stroke="#32323F" stroke-opacity="0.56"/>
<path d="M661.813 892.673L663.237 877.112L662.629 864.122L660.371 851.305L653.355 826.211" stroke="#32323F" stroke-opacity="0.56"/>
<path d="M661.24 809.139L658.652 793.718" stroke="#32323F" stroke-opacity="0.56"/>
<path d="M672.233 781.353L671.764 763.135" stroke="#32323F" stroke-opacity="0.56"/>
<path d="M678.051 746.446L682.288 723.4L696.893 665.308L699.429 649.887L700.558 634.309L700.158 621.284L698.578 608.363L695.99 595.599L686.473 557.705L684.702 547.441L683.643 534.468L683.868 524.048L685.049 513.697L687.637 500.933L695.765 468.075L697.206 457.759L697.571 449.944L697.276 442.147L695.903 431.814L686.751 393.85L685.449 386.139L684.685 375.754L684.962 367.939L685.935 360.194L693.819 327.266L695.105 319.556L695.782 309.17L695.452 301.373L694.045 291.039L684.112 250.575L682.288 240.311L681.35 229.944L681.507 219.524L682.774 209.19L691.406 173.762L694.011 155.736L694.202 145.316L693.489 134.931L691.631 122.044L688.992 109.28" stroke="#32323F" stroke-opacity="0.56"/>
<path d="M689.165 91.9654L681.159 61.7474" stroke="#32323F" stroke-opacity="0.56"/>
<path d="M682.114 44.6933L680.048 29.2022L679.353 18.7996L679.475 5.79197L680.464 -4.59329" stroke="#32323F" stroke-opacity="0.56"/>
<path d="M655.526 980.583L654.571 972.837L654.206 962.417" stroke="#32323F" stroke-opacity="0.56"/>
<path d="M661.726 944.53L664.8 929.195L670.27 909.102" stroke="#32323F" stroke-opacity="0.56"/>
<path d="M680.777 895.365L683.955 882.739L686.387 869.94L687.463 859.572L687.55 849.169L686.925 841.372L685.223 831.091L676.818 798.302" stroke="#32323F" stroke-opacity="0.56"/>
<path d="M703.579 837.968L702.937 830.188L701.252 819.907L692.083 781.926L690.363 771.645L689.391 761.277" stroke="#32323F" stroke-opacity="0.56"/>
<path d="M698.3 744.535L699.238 731.545L701.617 716.106" stroke="#32323F" stroke-opacity="0.56"/>
<path d="M676.019 981.816L671.156 961.549" stroke="#32323F" stroke-opacity="0.56"/>
<path d="M682.097 948.073L681.802 932.46" stroke="#32323F" stroke-opacity="0.56"/>
<path d="M696.303 923.62L697.258 913.252L699.047 902.989L710.37 854.814" stroke="#32323F" stroke-opacity="0.56"/>
<path d="M688.523 1035.97L693.437 1015.72L695.018 1005.42L695.556 997.62L695.365 989.822L694.445 982.059L690.277 964.31" stroke="#32323F" stroke-opacity="0.56"/>
</g>
<defs>
<clipPath id="clip0_7_1071">
<rect width="698" height="976" fill="white"/>
</clipPath>
</defs>
</svg>
